# Blender v2.80 (sub 75) OBJ File: ''
# www.blender.org
mtllib car.mtl
o CAR_Cube.001
v -1.046491 1.561669 -0.428815
v -1.046491 2.211850 -0.428815
v -1.046491 1.561669 -3.761650
v -1.046491 2.211850 -3.761650
v 0.953509 1.561669 -0.428815
v 0.953509 2.211850 -0.428815
v 0.953509 1.561669 -3.761650
v 0.953509 2.211850 -3.761650
v -1.556828 0.960486 -3.761650
v -1.556828 0.960486 -0.428815
v 0.443172 0.960486 -3.761650
v 0.443172 0.960486 -0.428815
v -1.556828 0.459599 -3.761650
v -1.556828 0.459599 -0.428815
v 0.443172 0.459599 -3.761650
v 0.443172 0.459599 -0.428815
v 5.474180 2.211850 -3.761650
v 5.474180 1.561669 -3.761650
v 5.474180 1.561669 -0.428815
v 5.474180 2.211850 -0.428815
v 5.443581 0.960486 -0.428815
v 5.443581 0.960486 -3.761650
v 5.443581 0.459599 -0.428815
v 5.443581 0.459599 -3.761650
v 5.196252 3.354069 -3.761650
v 1.590410 3.354069 -3.761650
v 1.590410 3.354069 -0.428815
v 5.196252 3.354069 -0.428815
v 1.196283 2.211850 -3.761650
v 1.196283 2.211850 -0.428815
v 1.196283 1.561669 -3.761650
v 0.711709 0.960486 -0.428815
v 1.196283 1.561669 -0.428815
v 0.711709 0.459599 -0.428815
v 0.711709 0.459599 -3.761650
v 0.711709 0.960486 -3.761650
v 1.784055 3.354069 -3.761650
v 1.784055 3.354069 -0.428815
v 2.968751 2.211850 -0.428815
v 2.672273 0.960486 -0.428815
v 2.672273 0.459599 -0.428815
v 2.672273 0.459599 -3.761650
v 3.197836 3.354069 -0.428815
v 2.968751 2.211850 -3.761650
v 2.968751 1.561669 -3.761650
v 2.968751 1.561669 -0.428815
v 2.672273 0.960486 -3.761650
v 3.197836 3.354069 -3.761650
v 3.233224 2.211850 -0.428815
v 2.964812 0.960486 -0.428815
v 2.964812 0.459599 -0.428815
v 2.964812 0.459599 -3.761650
v 3.408789 3.354069 -0.428815
v 3.233224 2.211850 -3.761650
v 3.233224 1.561669 -3.761650
v 3.233224 1.561669 -0.428815
v 2.964812 0.960486 -3.761650
v 3.408789 3.354069 -3.761650
v 5.241537 3.167961 -0.428815
v 3.155646 3.143708 -0.428815
v 3.376851 3.146279 -0.428815
v 1.666904 3.126408 -0.428815
v 5.108463 2.211850 -0.428815
v 5.039053 0.960486 -0.428815
v 5.039053 0.459599 -0.428815
v 5.039053 0.459599 -3.761650
v 4.904544 3.354069 -0.428815
v 5.108463 2.211850 -3.761650
v 5.108463 1.561669 -3.761650
v 5.108463 1.561669 -0.428815
v 5.039053 0.960486 -3.761650
v 4.904544 3.354069 -3.761650
v 4.937226 3.164423 -0.428815
v 3.371243 3.109797 -3.761650
v 5.262522 3.081717 -3.761650
v 4.952344 3.086323 -3.761650
v 1.671344 3.135037 -3.761650
v 3.149505 3.113091 -3.761650
v -1.046491 1.561669 -1.109909
v -1.046491 1.894945 -0.428815
v -1.046491 1.874431 -1.100724
v -1.046491 1.888510 -3.761650
v -1.046491 1.561669 -3.209220
v -1.046491 1.911991 -3.211673
v 1.072951 2.224993 -3.584154
v 1.072951 2.224993 -0.606310
v 1.642014 3.245551 -3.584154
v 1.642014 3.245551 -0.606310
v -1.115755 1.561669 -1.109909
v -1.115755 1.561669 -0.428815
v -1.115755 1.888510 -3.761650
v -1.115755 1.561669 -3.761650
v -1.115755 1.894945 -0.428815
v -1.115755 1.874431 -1.100724
v -1.115755 1.561669 -3.209220
v -1.115755 1.911991 -3.211673
v 1.196283 2.211850 -0.498608
v 2.968751 2.211850 -0.498608
v 3.155646 3.143708 -0.498608
v 3.233224 2.211850 -0.498608
v 3.376851 3.146279 -0.498608
v 1.666904 3.126408 -0.498608
v 5.108463 2.211850 -0.498608
v 4.937226 3.164423 -0.498608
v 2.968751 2.211850 -3.694296
v 1.196283 2.211850 -3.694296
v 5.108463 2.211850 -3.694296
v 3.233224 2.211850 -3.694296
v 3.371243 3.109797 -3.694296
v 4.952344 3.086323 -3.694296
v 1.671344 3.135037 -3.694296
v 3.149505 3.113091 -3.694296
v 5.449934 2.311497 -3.519260
v 5.449934 2.311497 -0.671204
v 5.212432 3.287574 -3.519260
v 5.212432 3.287574 -0.671204
v 5.269062 3.054838 -3.519260
v 5.251130 3.128536 -0.671204
v 5.395739 2.298310 -3.519260
v 5.395739 2.298310 -0.671204
v 5.158237 3.274387 -3.519260
v 5.158237 3.274387 -0.671204
v 5.214867 3.041651 -3.519260
v 5.196935 3.115350 -0.671204
v 5.457530 1.234551 -0.428815
v 5.443581 0.960486 -0.826502
v 5.458255 1.248797 -0.827056
v 5.458079 1.245343 -3.761650
v 5.443581 0.960486 -3.407224
v 5.458674 1.257019 -3.409151
v 5.501937 0.957515 -3.407224
v 5.501937 0.957515 -3.761650
v 5.516436 1.242372 -3.761650
v 5.501937 0.957515 -0.428815
v 5.515887 1.231581 -0.428815
v 5.501937 0.957515 -0.826502
v 5.516612 1.245826 -0.827056
v 5.517030 1.254049 -3.409151
v 0.734694 1.018021 -0.673939
v 0.734694 0.338729 -0.673939
v 0.734694 1.018021 -0.099045
v 0.734694 0.338729 -0.099045
v -0.734694 1.018021 -0.673939
v -0.734694 0.338729 -0.673939
v -0.734694 1.018021 -0.099045
v -0.734694 0.338729 -0.099045
v -0.773907 0.234644 -0.401154
v 0.773907 1.122106 -0.401154
v -0.773907 1.122106 -0.401154
v 0.773907 0.234644 -0.401154
v 0.306220 0.214310 -0.703086
v -0.306220 0.214310 -0.703086
v 0.306220 1.142440 -0.062314
v -0.306220 1.142440 -0.062314
v -0.306220 0.214310 -0.062314
v 0.306220 0.214310 -0.062314
v -0.306220 1.142440 -0.703086
v 0.306220 1.142440 -0.703086
v 0.312999 -0.138612 -0.399569
v -0.312999 -0.138612 -0.399569
v -0.312999 1.495362 -0.399569
v 0.312999 1.495362 -0.399569
v 4.961287 1.018021 -0.673939
v 4.961287 0.338729 -0.673939
v 4.961287 1.018021 -0.099045
v 4.961287 0.338729 -0.099045
v 3.491899 1.018021 -0.673939
v 3.491899 0.338729 -0.673939
v 3.491899 1.018021 -0.099045
v 3.491899 0.338729 -0.099045
v 3.452686 0.234644 -0.401154
v 5.000500 1.122106 -0.401154
v 3.452686 1.122106 -0.401154
v 5.000500 0.234644 -0.401154
v 4.532813 0.214310 -0.703086
v 3.920373 0.214310 -0.703086
v 4.532813 1.142440 -0.062314
v 3.920373 1.142440 -0.062314
v 3.920373 0.214310 -0.062314
v 4.532813 0.214310 -0.062314
v 3.920373 1.142440 -0.703086
v 4.532813 1.142440 -0.703086
v 4.539592 -0.138612 -0.399569
v 3.913594 -0.138612 -0.399569
v 3.913594 1.495362 -0.399569
v 4.539592 1.495362 -0.399569
v 0.734694 1.018021 -4.072743
v 0.734694 0.338729 -4.072743
v 0.734694 1.018021 -3.497849
v 0.734694 0.338729 -3.497849
v -0.734694 1.018021 -4.072743
v -0.734694 0.338729 -4.072743
v -0.734694 1.018021 -3.497849
v -0.734694 0.338729 -3.497849
v -0.773907 0.234644 -3.799958
v 0.773907 1.122106 -3.799958
v -0.773907 1.122106 -3.799958
v 0.773907 0.234644 -3.799958
v 0.306220 0.214310 -4.101890
v -0.306220 0.214310 -4.101890
v 0.306220 1.142440 -3.461118
v -0.306220 1.142440 -3.461118
v -0.306220 0.214310 -3.461118
v 0.306220 0.214310 -3.461118
v -0.306220 1.142440 -4.101890
v 0.306220 1.142440 -4.101890
v 0.312999 -0.138612 -3.798373
v -0.312999 -0.138612 -3.798373
v -0.312999 1.495362 -3.798373
v 0.312999 1.495362 -3.798373
v 4.961287 1.018021 -4.072743
v 4.961287 0.338729 -4.072743
v 4.961287 1.018021 -3.497849
v 4.961287 0.338729 -3.497849
v 3.491899 1.018021 -4.072743
v 3.491899 0.338729 -4.072743
v 3.491899 1.018021 -3.497849
v 3.491899 0.338729 -3.497849
v 3.452686 0.234644 -3.799958
v 5.000500 1.122106 -3.799958
v 3.452686 1.122106 -3.799958
v 5.000500 0.234644 -3.799958
v 4.532813 0.214310 -4.101890
v 3.920373 0.214310 -4.101890
v 4.532813 1.142440 -3.461118
v 3.920373 1.142440 -3.461118
v 3.920373 0.214310 -3.461118
v 4.532813 0.214310 -3.461118
v 3.920373 1.142440 -4.101890
v 4.532813 1.142440 -4.101890
v 4.539592 -0.138612 -3.798373
v 3.913594 -0.138612 -3.798373
v 3.913594 1.495362 -3.798373
v 4.539592 1.495362 -3.798373
vt 0.375000 0.250000
vt 0.500673 0.250000
vt 0.625000 0.250000
vt 0.625000 0.500000
vt 0.375000 0.500000
vt 0.375000 0.750000
vt 0.375000 0.750000
vt 0.375000 0.750000
vt 0.375000 0.750000
vt 0.375000 0.750000
vt 0.375000 0.750000
vt 0.625000 0.750000
vt 0.625000 1.000000
vt 0.503147 1.000000
vt 0.375000 1.000000
vt 0.375000 1.000000
vt 0.375000 0.750000
vt 0.875000 0.500000
vt 0.875000 0.750000
vt 0.375000 0.000000
vt 0.375000 0.250000
vt 0.375000 0.250000
vt 0.375000 0.000000
vt 0.375000 0.500000
vt 0.375000 0.000000
vt 0.375000 0.051090
vt 0.375000 0.208562
vt 0.375000 0.500000
vt 0.625000 0.500000
vt 0.625000 0.500000
vt 0.375000 0.500000
vt 0.125000 0.500000
vt 0.375000 0.500000
vt 0.375000 0.750000
vt 0.125000 0.750000
vt 0.375000 1.000000
vt 0.625000 0.500000
vt 0.625000 0.500000
vt 0.625000 0.500000
vt 0.625000 0.750000
vt 0.375000 0.720127
vt 0.375000 0.720169
vt 0.375000 0.526586
vt 0.375000 0.526441
vt 0.375000 0.500000
vt 0.375000 0.500000
vt 0.375000 0.750000
vt 0.375000 0.500000
vt 0.375000 0.750000
vt 0.375000 0.500000
vt 0.625000 0.750000
vt 0.375000 0.500000
vt 0.625000 0.500000
vt 0.625000 0.750000
vt 0.625000 0.750000
vt 0.625000 0.500000
vt 0.625000 0.750000
vt 0.625000 0.750000
vt 0.625000 0.750000
vt 0.625000 0.500000
vt 0.625000 0.500000
vt 0.625000 0.500000
vt 0.625000 0.750000
vt 0.625000 0.750000
vt 0.625000 0.750000
vt 0.625000 0.750000
vt 0.625000 0.750000
vt 0.625000 0.500000
vt 0.625000 0.500000
vt 0.625000 0.500000
vt 0.625000 0.500000
vt 0.375000 0.500000
vt 0.375000 0.500000
vt 0.375000 0.500000
vt 0.375000 0.750000
vt 0.375000 0.750000
vt 0.375000 0.750000
vt 0.625000 0.500000
vt 0.625000 0.500000
vt 0.625000 0.750000
vt 0.625000 0.750000
vt 0.625000 0.750000
vt 0.625000 0.750000
vt 0.625000 0.500000
vt 0.375000 0.500000
vt 0.375000 0.500000
vt 0.375000 0.500000
vt 0.375000 0.750000
vt 0.625000 0.750000
vt 0.375000 0.750000
vt 0.375000 0.750000
vt 0.625000 0.500000
vt 0.625000 0.750000
vt 0.625000 0.750000
vt 0.625000 0.750000
vt 0.625000 0.500000
vt 0.375000 0.500000
vt 0.375000 0.500000
vt 0.375000 0.500000
vt 0.375000 0.750000
vt 0.375000 0.750000
vt 0.375000 0.750000
vt 0.625000 0.500000
vt 0.625000 0.500000
vt 0.625000 0.750000
vt 0.625000 0.750000
vt 0.495260 0.050401
vt 0.503147 0.000000
vt 0.625000 0.000000
vt 0.509702 0.208746
vt 0.625000 0.750000
vt 0.625000 0.750000
vt 0.625000 0.750000
vt 0.625000 0.750000
vt 0.625000 0.750000
vt 0.625000 0.750000
vt 0.625000 0.500000
vt 0.625000 0.500000
vt 0.625000 0.500000
vt 0.625000 0.500000
vt 0.625000 0.500000
vt 0.625000 0.750000
vt 0.625000 0.750000
vt 0.625000 0.750000
vt 0.625000 0.500000
vt 0.625000 0.500000
vt 0.625000 0.500000
vt 0.625000 0.500000
vt 0.625000 0.500000
vt 0.625000 0.500000
vt 0.625000 0.750000
vt 0.375000 0.250000
vt 0.500673 0.250000
vt 0.509702 0.208746
vt 0.375000 0.000000
vt 0.503147 0.000000
vt 0.495260 0.050401
vt 0.375000 0.051090
vt 0.375000 0.208562
vt 0.503147 1.000000
vt 0.375000 1.000000
vt 0.375000 0.720169
vt 0.375000 0.720127
vt 0.375000 0.750000
vt 0.375000 0.750000
vt 0.375000 0.500000
vt 0.375000 0.500000
vt 0.375000 0.526441
vt 0.375000 0.526586
vt 0.541667 0.180575
vt 0.625000 0.180575
vt 0.625000 0.250000
vt 0.541667 0.250000
vt 0.375000 0.416667
vt 0.625000 0.416667
vt 0.625000 0.500000
vt 0.375000 0.500000
vt 0.375000 0.569425
vt 0.625000 0.569425
vt 0.625000 0.750000
vt 0.375000 0.750000
vt 0.541667 0.930575
vt 0.625000 0.930575
vt 0.625000 1.000000
vt 0.541667 1.000000
vt 0.125000 0.680575
vt 0.375000 0.680575
vt 0.375000 0.750000
vt 0.125000 0.750000
vt 0.625000 0.666667
vt 0.875000 0.666667
vt 0.875000 0.750000
vt 0.625000 0.750000
vt 0.125000 0.500000
vt 0.375000 0.500000
vt 0.541667 0.750000
vt 0.541667 0.000000
vt 0.625000 0.000000
vt 0.375000 0.000000
vt 0.458333 0.000000
vt 0.458333 0.180575
vt 0.375000 0.180575
vt 0.458333 0.750000
vt 0.458333 0.930575
vt 0.375000 0.930575
vt 0.625000 0.500000
vt 0.875000 0.500000
vt 0.875000 0.583333
vt 0.625000 0.583333
vt 0.458333 1.000000
vt 0.375000 1.000000
vt 0.375000 0.250000
vt 0.625000 0.250000
vt 0.625000 0.333333
vt 0.375000 0.333333
vt 0.458333 0.250000
vt 0.375000 0.250000
vt 0.541667 0.180575
vt 0.625000 0.180575
vt 0.625000 0.250000
vt 0.541667 0.250000
vt 0.375000 0.416667
vt 0.625000 0.416667
vt 0.625000 0.500000
vt 0.375000 0.500000
vt 0.375000 0.569425
vt 0.625000 0.569425
vt 0.625000 0.750000
vt 0.375000 0.750000
vt 0.541667 0.930575
vt 0.625000 0.930575
vt 0.625000 1.000000
vt 0.541667 1.000000
vt 0.125000 0.680575
vt 0.375000 0.680575
vt 0.375000 0.750000
vt 0.125000 0.750000
vt 0.625000 0.666667
vt 0.875000 0.666667
vt 0.875000 0.750000
vt 0.625000 0.750000
vt 0.125000 0.500000
vt 0.375000 0.500000
vt 0.541667 0.750000
vt 0.541667 0.000000
vt 0.625000 0.000000
vt 0.375000 0.000000
vt 0.458333 0.000000
vt 0.458333 0.180575
vt 0.375000 0.180575
vt 0.458333 0.750000
vt 0.458333 0.930575
vt 0.375000 0.930575
vt 0.625000 0.500000
vt 0.875000 0.500000
vt 0.875000 0.583333
vt 0.625000 0.583333
vt 0.458333 1.000000
vt 0.375000 1.000000
vt 0.375000 0.250000
vt 0.625000 0.250000
vt 0.625000 0.333333
vt 0.375000 0.333333
vt 0.458333 0.250000
vt 0.375000 0.250000
vt 0.541667 0.180575
vt 0.625000 0.180575
vt 0.625000 0.250000
vt 0.541667 0.250000
vt 0.375000 0.416667
vt 0.625000 0.416667
vt 0.625000 0.500000
vt 0.375000 0.500000
vt 0.375000 0.569425
vt 0.625000 0.569425
vt 0.625000 0.750000
vt 0.375000 0.750000
vt 0.541667 0.930575
vt 0.625000 0.930575
vt 0.625000 1.000000
vt 0.541667 1.000000
vt 0.125000 0.680575
vt 0.375000 0.680575
vt 0.375000 0.750000
vt 0.125000 0.750000
vt 0.625000 0.666667
vt 0.875000 0.666667
vt 0.875000 0.750000
vt 0.625000 0.750000
vt 0.125000 0.500000
vt 0.375000 0.500000
vt 0.541667 0.750000
vt 0.541667 0.000000
vt 0.625000 0.000000
vt 0.375000 0.000000
vt 0.458333 0.000000
vt 0.458333 0.180575
vt 0.375000 0.180575
vt 0.458333 0.750000
vt 0.458333 0.930575
vt 0.375000 0.930575
vt 0.625000 0.500000
vt 0.875000 0.500000
vt 0.875000 0.583333
vt 0.625000 0.583333
vt 0.458333 1.000000
vt 0.375000 1.000000
vt 0.375000 0.250000
vt 0.625000 0.250000
vt 0.625000 0.333333
vt 0.375000 0.333333
vt 0.458333 0.250000
vt 0.375000 0.250000
vt 0.541667 0.180575
vt 0.625000 0.180575
vt 0.625000 0.250000
vt 0.541667 0.250000
vt 0.375000 0.416667
vt 0.625000 0.416667
vt 0.625000 0.500000
vt 0.375000 0.500000
vt 0.375000 0.569425
vt 0.625000 0.569425
vt 0.625000 0.750000
vt 0.375000 0.750000
vt 0.541667 0.930575
vt 0.625000 0.930575
vt 0.625000 1.000000
vt 0.541667 1.000000
vt 0.125000 0.680575
vt 0.375000 0.680575
vt 0.375000 0.750000
vt 0.125000 0.750000
vt 0.625000 0.666667
vt 0.875000 0.666667
vt 0.875000 0.750000
vt 0.625000 0.750000
vt 0.125000 0.500000
vt 0.375000 0.500000
vt 0.541667 0.750000
vt 0.541667 0.000000
vt 0.625000 0.000000
vt 0.375000 0.000000
vt 0.458333 0.000000
vt 0.458333 0.180575
vt 0.375000 0.180575
vt 0.458333 0.750000
vt 0.458333 0.930575
vt 0.375000 0.930575
vt 0.625000 0.500000
vt 0.875000 0.500000
vt 0.875000 0.583333
vt 0.625000 0.583333
vt 0.458333 1.000000
vt 0.375000 1.000000
vt 0.375000 0.250000
vt 0.625000 0.250000
vt 0.625000 0.333333
vt 0.375000 0.333333
vt 0.458333 0.250000
vt 0.375000 0.250000
vn 0.0000 0.0000 -1.0000
vn -0.0000 0.0000 1.0000
vn 0.0000 1.0000 0.0000
vn -1.0000 0.0000 0.0000
vn -0.7624 0.6472 0.0000
vn 0.0000 -1.0000 0.0000
vn -0.7647 0.4264 0.4830
vn 1.0000 0.0000 0.0000
vn 0.9987 -0.0508 -0.0000
vn 0.9716 0.2364 0.0000
vn 0.9884 -0.1519 0.0000
vn 0.0116 -0.9999 0.0000
vn -0.9031 -0.4294 0.0000
vn -0.1094 0.9940 0.0000
vn -0.7647 0.4264 -0.4830
vn 0.8892 -0.4576 0.0000
vn -0.9805 0.1966 0.0000
vn -0.9842 -0.1769 0.0000
vn -0.0148 -0.9999 0.0000
vn -0.9844 -0.1758 0.0000
vn 0.9717 0.2364 0.0000
vn -0.2364 0.9716 0.0000
vn 0.2364 -0.9716 0.0000
vn 0.0000 0.9991 -0.0427
vn 0.0000 0.9995 -0.0305
vn 0.0000 0.0070 1.0000
vn 0.0000 0.0294 -0.9996
vn 0.0508 0.9982 -0.0331
vn 0.0508 0.9981 0.0358
vn -0.0508 -0.9987 0.0000
vn 0.0003 0.0065 1.0000
vn -0.0001 -0.0019 -1.0000
vn -0.8734 0.4870 0.0000
vn -0.4269 0.7209 0.5460
vn -0.0854 0.0000 0.9963
vn -0.9898 0.0000 -0.1423
vn 0.4269 -0.7209 0.5460
vn 0.9917 0.0000 0.1287
vn 0.0679 0.0000 -0.9977
vn 0.9898 0.0000 -0.1423
vn 0.4092 -0.6988 -0.5868
vn -0.9917 0.0000 0.1287
vn -0.4092 0.6988 -0.5868
vn 0.4092 0.6988 -0.5868
vn 0.0000 0.6520 -0.7582
vn -0.4092 -0.6988 -0.5868
vn 0.0000 -0.6520 -0.7582
vn -0.0679 0.0000 -0.9977
vn -0.4269 -0.7209 0.5460
vn 0.0000 -0.6909 0.7230
vn 0.0854 0.0000 0.9963
vn 0.4269 0.7209 0.5460
vn 0.0000 0.6909 0.7230
usemtl Material.001
s off
f 3/1/1 82/2/1 4/3/1 8/4/1 7/5/1
f 70/6/2 64/7/2 21/8/2 125/9/2 19/10/2
f 5/11/2 6/12/2 2/13/2 80/14/2 1/15/2
f 5/11/2 1/15/2 10/16/2 12/17/2
f 8/4/3 4/18/3 2/19/3 6/12/3
f 10/20/4 9/21/4 13/22/4 14/23/4
f 3/1/1 7/5/1 11/24/1 9/21/1
f 1/25/5 79/26/5 83/27/5 3/1/5 9/21/5 10/20/5
f 69/28/1 68/29/1 17/30/1 18/31/1
f 13/32/6 15/33/6 16/34/6 14/35/6
f 12/17/2 10/16/2 14/36/2 16/34/2
f 9/21/1 11/24/1 15/33/1 13/22/1
f 26/37/7 8/4/7 85/38/7 87/39/7
f 18/31/8 17/30/8 20/40/8 19/10/8
f 18/31/9 19/10/9 125/9/9 127/41/9 126/42/9 129/43/9 130/44/9 128/45/9
f 22/46/8 129/43/8 126/42/8 21/8/8 23/47/8 24/48/8
f 64/7/2 65/49/2 23/47/2 21/8/2
f 65/49/6 66/50/6 24/48/6 23/47/6
f 63/51/2 70/6/2 19/10/2 20/40/2
f 71/52/1 69/28/1 18/31/1 128/45/1 22/46/1
f 66/50/1 71/52/1 22/46/1 24/48/1
f 72/53/3 67/54/3 28/55/3 25/56/3
f 59/57/10 20/40/10 114/58/10 118/59/10
f 29/60/1 8/4/1 26/37/1 37/61/1 77/62/1
f 63/51/2 20/40/2 59/57/2 73/63/2
f 6/12/2 30/64/2 62/65/2 38/66/2 27/67/2
f 54/68/11 74/69/11 109/70/11 108/71/11
f 26/37/3 27/67/3 38/66/3 37/61/3
f 15/33/1 11/24/1 36/72/1 35/73/1
f 11/24/1 7/5/1 31/74/1 36/72/1
f 6/12/2 5/11/2 33/75/2 30/64/2
f 16/34/6 15/33/6 35/73/6 34/76/6
f 12/17/2 16/34/2 34/76/2 32/77/2
f 7/5/1 8/4/1 29/60/1 31/74/1
f 5/11/2 12/17/2 32/77/2 33/75/2
f 54/68/1 44/78/1 78/79/1 74/69/1
f 60/80/12 62/65/12 102/81/12 99/82/12
f 37/61/3 38/66/3 43/83/3 48/84/3
f 35/73/1 36/72/1 47/85/1 42/86/1
f 36/72/1 31/74/1 45/87/1 47/85/1
f 30/64/2 33/75/2 46/88/2 39/89/2
f 34/76/6 35/73/6 42/86/6 41/90/6
f 32/77/2 34/76/2 41/90/2 40/91/2
f 31/74/1 29/60/1 44/78/1 45/87/1
f 33/75/2 32/77/2 40/91/2 46/88/2
f 68/29/3 54/68/3 108/71/3 107/92/3
f 39/89/2 49/93/2 61/94/2 60/80/2
f 48/84/3 43/83/3 53/95/3 58/96/3
f 42/86/1 47/85/1 57/97/1 52/98/1
f 47/85/1 45/87/1 55/99/1 57/97/1
f 39/89/2 46/88/2 56/100/2 49/93/2
f 41/90/6 42/86/6 52/98/6 51/101/6
f 40/91/2 41/90/2 51/101/2 50/102/2
f 45/87/1 44/78/1 54/68/1 55/99/1
f 46/88/2 40/91/2 50/102/2 56/100/2
f 61/94/2 73/63/2 67/54/2 53/95/2
f 60/80/2 61/94/2 53/95/2 43/83/2
f 62/65/2 60/80/2 43/83/2 38/66/2
f 73/63/2 59/57/2 28/55/2 67/54/2
f 17/30/1 68/29/1 76/103/1 75/104/1
f 49/93/3 63/51/3 103/105/3 100/106/3
f 58/96/3 53/95/3 67/54/3 72/53/3
f 52/98/1 57/97/1 71/52/1 66/50/1
f 57/97/1 55/99/1 69/28/1 71/52/1
f 49/93/2 56/100/2 70/6/2 63/51/2
f 51/101/6 52/98/6 66/50/6 65/49/6
f 50/102/2 51/101/2 65/49/2 64/7/2
f 55/99/1 54/68/1 68/29/1 69/28/1
f 56/100/2 50/102/2 64/7/2 70/6/2
f 78/79/1 77/62/1 37/61/1 48/84/1
f 76/103/1 74/69/1 58/96/1 72/53/1
f 74/69/1 78/79/1 48/84/1 58/96/1
f 75/104/1 76/103/1 72/53/1 25/56/1
f 79/26/4 81/107/4 80/108/4 2/109/4 4/3/4 82/2/4 84/110/4 83/27/4
f 27/67/13 26/37/13 87/39/13 88/111/13
f 8/4/14 6/12/14 86/112/14 85/38/14
f 6/12/15 27/67/15 88/111/15 86/112/15
f 62/65/16 30/64/16 97/113/16 102/81/16
f 39/89/17 60/80/17 99/82/17 98/114/17
f 73/63/12 61/94/12 101/115/12 104/116/12
f 30/64/3 39/89/3 98/114/3 97/113/3
f 61/94/11 49/93/11 100/106/11 101/115/11
f 63/51/18 73/63/18 104/116/18 103/105/18
f 77/62/19 78/79/19 112/117/19 111/118/19
f 29/60/16 77/62/16 111/118/16 106/119/16
f 44/78/3 29/60/3 106/119/3 105/120/3
f 74/69/19 76/103/19 110/121/19 109/70/19
f 78/79/17 44/78/17 105/120/17 112/117/17
f 76/103/20 68/29/20 107/92/20 110/121/20
f 116/122/1 118/59/1 124/123/1 122/124/1
f 25/56/21 28/55/21 116/122/21 115/125/21
f 17/30/10 75/104/10 117/126/10 113/127/10
f 20/40/10 17/30/10 113/127/10 114/58/10
f 75/104/10 25/56/10 115/125/10 117/126/10
f 28/55/10 59/57/10 118/59/10 116/122/10
f 117/126/2 115/125/2 121/128/2 123/129/2
f 114/58/22 113/127/22 119/130/22 120/131/22
f 113/127/2 117/126/2 123/129/2 119/130/2
f 118/59/1 114/58/1 120/131/1 124/123/1
f 115/125/23 116/122/23 122/124/23 121/128/23
usemtl Material.002
f 82/2/1 3/1/1 92/132/1 91/133/1
f 84/110/24 82/2/24 91/133/24 96/134/24
f 90/135/4 93/136/4 94/137/4 89/138/4
f 95/139/4 96/134/4 91/133/4 92/132/4
f 3/1/6 83/27/6 95/139/6 92/132/6
f 80/108/25 81/107/25 94/137/25 93/136/25
f 1/15/2 80/14/2 93/140/2 90/141/2
f 83/27/26 84/110/26 96/134/26 95/139/26
f 79/26/6 1/25/6 90/135/6 89/138/6
f 81/107/27 79/26/27 89/138/27 94/137/27
usemtl Material.003
f 136/142/9 137/143/9 135/144/9 134/145/9
f 22/46/1 128/45/1 133/146/1 132/147/1
f 128/45/28 130/44/28 138/148/28 133/146/28
f 133/146/9 138/148/9 131/149/9 132/147/9
f 127/41/29 125/9/29 135/144/29 137/143/29
f 129/43/30 22/46/30 132/147/30 131/149/30
f 21/8/30 126/42/30 136/142/30 134/145/30
f 130/44/31 129/43/31 131/149/31 138/148/31
f 126/42/32 127/41/32 137/143/32 136/142/32
f 125/9/2 21/8/2 134/145/2 135/144/2
usemtl Material.004
f 85/38/33 86/112/33 88/111/33 87/39/33
f 97/113/2 98/114/2 99/82/2 102/81/2
f 100/106/2 103/105/2 104/116/2 101/115/2
f 105/120/1 106/119/1 111/118/1 112/117/1
f 107/92/1 108/71/1 109/70/1 110/121/1
f 120/131/10 119/130/10 123/129/10 121/128/10 122/124/10 124/123/10
usemtl Material
f 161/150/34 149/151/34 145/152/34 154/153/34
f 155/154/35 154/155/35 145/156/35 146/157/35
f 147/158/36 149/159/36 143/160/36 144/161/36
f 159/162/37 150/163/37 142/164/37 156/165/37
f 150/166/38 148/167/38 141/168/38 142/169/38
f 151/170/39 158/171/39 139/172/39 140/173/39
f 140/174/40 139/175/40 148/167/40 150/166/40
f 151/176/41 140/173/41 150/163/41 159/162/41
f 146/157/42 145/156/42 149/159/42 147/158/42
f 157/177/43 143/178/43 149/151/43 161/150/43
f 139/179/44 158/180/44 162/181/44 148/182/44
f 158/180/45 157/177/45 161/150/45 162/181/45
f 144/161/46 152/183/46 160/184/46 147/185/46
f 152/183/47 151/176/47 159/162/47 160/184/47
f 144/186/48 143/187/48 157/188/48 152/189/48
f 152/189/1 157/188/1 158/171/1 151/170/1
f 147/185/49 160/184/49 155/190/49 146/191/49
f 160/184/50 159/162/50 156/165/50 155/190/50
f 142/192/51 141/193/51 153/194/51 156/195/51
f 156/195/2 153/194/2 154/155/2 155/154/2
f 148/182/52 162/181/52 153/196/52 141/197/52
f 162/181/53 161/150/53 154/153/53 153/196/53
f 185/198/34 173/199/34 169/200/34 178/201/34
f 179/202/35 178/203/35 169/204/35 170/205/35
f 171/206/36 173/207/36 167/208/36 168/209/36
f 183/210/37 174/211/37 166/212/37 180/213/37
f 174/214/38 172/215/38 165/216/38 166/217/38
f 175/218/39 182/219/39 163/220/39 164/221/39
f 164/222/40 163/223/40 172/215/40 174/214/40
f 175/224/41 164/221/41 174/211/41 183/210/41
f 170/205/42 169/204/42 173/207/42 171/206/42
f 181/225/43 167/226/43 173/199/43 185/198/43
f 163/227/44 182/228/44 186/229/44 172/230/44
f 182/228/45 181/225/45 185/198/45 186/229/45
f 168/209/46 176/231/46 184/232/46 171/233/46
f 176/231/47 175/224/47 183/210/47 184/232/47
f 168/234/48 167/235/48 181/236/48 176/237/48
f 176/237/1 181/236/1 182/219/1 175/218/1
f 171/233/49 184/232/49 179/238/49 170/239/49
f 184/232/50 183/210/50 180/213/50 179/238/50
f 166/240/51 165/241/51 177/242/51 180/243/51
f 180/243/2 177/242/2 178/203/2 179/202/2
f 172/230/52 186/229/52 177/244/52 165/245/52
f 186/229/53 185/198/53 178/201/53 177/244/53
f 209/246/34 197/247/34 193/248/34 202/249/34
f 203/250/35 202/251/35 193/252/35 194/253/35
f 195/254/36 197/255/36 191/256/36 192/257/36
f 207/258/37 198/259/37 190/260/37 204/261/37
f 198/262/38 196/263/38 189/264/38 190/265/38
f 199/266/39 206/267/39 187/268/39 188/269/39
f 188/270/40 187/271/40 196/263/40 198/262/40
f 199/272/41 188/269/41 198/259/41 207/258/41
f 194/253/42 193/252/42 197/255/42 195/254/42
f 205/273/43 191/274/43 197/247/43 209/246/43
f 187/275/44 206/276/44 210/277/44 196/278/44
f 206/276/45 205/273/45 209/246/45 210/277/45
f 192/257/46 200/279/46 208/280/46 195/281/46
f 200/279/47 199/272/47 207/258/47 208/280/47
f 192/282/48 191/283/48 205/284/48 200/285/48
f 200/285/1 205/284/1 206/267/1 199/266/1
f 195/281/49 208/280/49 203/286/49 194/287/49
f 208/280/50 207/258/50 204/261/50 203/286/50
f 190/288/51 189/289/51 201/290/51 204/291/51
f 204/291/2 201/290/2 202/251/2 203/250/2
f 196/278/52 210/277/52 201/292/52 189/293/52
f 210/277/53 209/246/53 202/249/53 201/292/53
f 233/294/34 221/295/34 217/296/34 226/297/34
f 227/298/35 226/299/35 217/300/35 218/301/35
f 219/302/36 221/303/36 215/304/36 216/305/36
f 231/306/37 222/307/37 214/308/37 228/309/37
f 222/310/38 220/311/38 213/312/38 214/313/38
f 223/314/39 230/315/39 211/316/39 212/317/39
f 212/318/40 211/319/40 220/311/40 222/310/40
f 223/320/41 212/317/41 222/307/41 231/306/41
f 218/301/42 217/300/42 221/303/42 219/302/42
f 229/321/43 215/322/43 221/295/43 233/294/43
f 211/323/44 230/324/44 234/325/44 220/326/44
f 230/324/45 229/321/45 233/294/45 234/325/45
f 216/305/46 224/327/46 232/328/46 219/329/46
f 224/327/47 223/320/47 231/306/47 232/328/47
f 216/330/48 215/331/48 229/332/48 224/333/48
f 224/333/1 229/332/1 230/315/1 223/314/1
f 219/329/49 232/328/49 227/334/49 218/335/49
f 232/328/50 231/306/50 228/309/50 227/334/50
f 214/336/51 213/337/51 225/338/51 228/339/51
f 228/339/2 225/338/2 226/299/2 227/298/2
f 220/326/52 234/325/52 225/340/52 213/341/52
f 234/325/53 233/294/53 226/297/53 225/340/53
